<svg width="12" height="12" viewBox="0 0 12 12" fill="none" xmlns="http://www.w3.org/2000/svg">
<path d="M2.5 9.5V2.5V4.7375V4.5V9.5ZM3.5 6.5H6.2625C6.27917 6.31667 6.32083 6.14167 6.3875 5.975C6.45417 5.80833 6.5375 5.65 6.6375 5.5H3.5V6.5ZM3.5 8.5H5.4625C5.60417 8.33333 5.76667 8.198 5.95 8.094C6.13333 7.99 6.325 7.9045 6.525 7.8375C6.49167 7.7875 6.4625 7.73333 6.4375 7.675C6.4125 7.61667 6.39167 7.55833 6.375 7.5H3.5V8.5ZM3.5 4.5H8.5V3.5H3.5V4.5ZM2.5 10.5C2.225 10.5 1.98967 10.4022 1.794 10.2065C1.59833 10.0108 1.50033 9.77533 1.5 9.5V2.5C1.5 2.225 1.598 1.98967 1.794 1.794C1.99 1.59833 2.22533 1.50033 2.5 1.5H9.5C9.775 1.5 10.0105 1.598 10.2065 1.794C10.4025 1.99 10.5003 2.22533 10.5 2.5V5.725C10.3833 5.50833 10.2417 5.31667 10.075 5.15C9.90833 4.98333 9.71667 4.84583 9.5 4.7375V2.5H2.5V9.5H5.025C5.01667 9.55 5.01033 9.6 5.006 9.65C5.00167 9.7 4.99967 9.75 5 9.8V10.5H2.5ZM8.5 8C8.15 8 7.85417 7.87917 7.6125 7.6375C7.37083 7.39583 7.25 7.1 7.25 6.75C7.25 6.4 7.37083 6.10417 7.6125 5.8625C7.85417 5.62083 8.15 5.5 8.5 5.5C8.85 5.5 9.14583 5.62083 9.3875 5.8625C9.62917 6.10417 9.75 6.4 9.75 6.75C9.75 7.1 9.62917 7.39583 9.3875 7.6375C9.14583 7.87917 8.85 8 8.5 8ZM6 10.5V9.8C6 9.6 6.05217 9.41467 6.1565 9.244C6.26083 9.07333 6.40867 8.95033 6.6 8.875C6.9 8.75 7.2105 8.65633 7.5315 8.594C7.8525 8.53167 8.17533 8.50033 8.5 8.5C8.82467 8.49967 9.14767 8.531 9.469 8.594C9.79033 8.657 10.1007 8.75067 10.4 8.875C10.5917 8.95 10.7397 9.073 10.844 9.244C10.9483 9.415 11.0003 9.60033 11 9.8V10.5H6Z" fill="white"/>
</svg>
