<svg width="24" height="24" viewBox="0 0 24 24" fill="none" xmlns="http://www.w3.org/2000/svg">
<g clip-path="url(#clip0_299_2451)">
<path d="M11.9866 9.71757C11.9531 9.71757 11.9196 9.71125 11.8878 9.69834L7.55421 7.94754C7.41933 7.89301 7.354 7.73942 7.40853 7.60454C7.46306 7.46966 7.61691 7.40486 7.75153 7.45886L11.9866 9.17015L22.4951 4.92486L11.9866 0.679559L1.47803 4.92459L5.20672 6.43093C5.3416 6.48546 5.40693 6.63904 5.3524 6.77392C5.29787 6.9088 5.14402 6.97387 5.00941 6.9196L0.676123 5.16906C0.576544 5.12876 0.511475 5.03207 0.511475 4.92486C0.511475 4.81764 0.576807 4.72095 0.676123 4.68065L11.888 0.151367C11.9512 0.125814 12.0221 0.125814 12.0853 0.151367L23.2972 4.68065C23.3968 4.72095 23.4619 4.81764 23.4619 4.92486C23.4619 5.03207 23.3968 5.12876 23.2972 5.16906L12.0853 9.69861C12.0535 9.71125 12.02 9.71757 11.9866 9.71757Z" fill="white"/>
<path d="M11.9866 23.8413C11.9349 23.8413 11.8833 23.826 11.8393 23.7962C11.7666 23.7475 11.7231 23.6653 11.7231 23.5778V9.45415C11.7231 9.34667 11.7885 9.25025 11.8878 9.20994L23.0994 4.6804C23.1808 4.64773 23.2725 4.65722 23.3457 4.70622C23.4182 4.75521 23.4617 4.83714 23.4617 4.9246V19.0483C23.4617 19.1555 23.3966 19.2522 23.297 19.2925L12.0851 23.8218C12.0535 23.8349 12.0198 23.8413 11.9866 23.8413ZM12.25 9.63197V23.1874L22.935 18.8707V5.31528L12.25 9.63197Z" fill="white"/>
<path d="M11.9865 23.8413C11.9534 23.8413 11.9196 23.8349 11.8878 23.822L0.676123 19.2925C0.576544 19.2524 0.511475 19.1555 0.511475 19.0483V4.9246C0.511475 4.83687 0.554942 4.75521 0.627651 4.70621C0.700096 4.65721 0.792299 4.64746 0.873701 4.68039L5.20698 6.4312C5.34186 6.48573 5.4072 6.63931 5.35267 6.77419C5.29813 6.90934 5.14481 6.97414 5.00967 6.91987L1.03809 5.31528V18.8707L11.7231 23.1874V9.63196L7.55448 7.94781C7.4196 7.89327 7.35426 7.73969 7.4088 7.60481C7.46333 7.47019 7.61717 7.40512 7.75179 7.45913L12.0853 9.20994C12.1847 9.25024 12.25 9.34666 12.25 9.45414V23.5778C12.25 23.6653 12.2065 23.7475 12.1338 23.7962C12.0898 23.826 12.0382 23.8413 11.9865 23.8413Z" fill="white"/>
<path d="M7.65297 13.8772C7.61978 13.8772 7.58606 13.8709 7.55418 13.858L5.00938 12.8295C4.9098 12.7895 4.84473 12.6925 4.84473 12.5853V6.67536C4.84473 6.56788 4.91006 6.47146 5.00938 6.43116L16.221 1.90161C16.2842 1.87606 16.3554 1.87606 16.4186 1.90161L18.9637 2.92981C19.0632 2.97011 19.1283 3.0668 19.1283 3.17401C19.1283 3.28123 19.0632 3.37792 18.9637 3.41822L7.91641 7.88112V13.6138C7.91641 13.7012 7.87294 13.7834 7.80023 13.8322C7.75624 13.8619 7.70487 13.8772 7.65297 13.8772ZM5.3716 12.4078L7.3898 13.2234V7.70356C7.3898 7.59608 7.45513 7.49966 7.55445 7.45935L18.1615 3.17401L16.3198 2.43007L5.3716 6.85292V12.4078Z" fill="white"/>
<path d="M13.9735 20.7725C13.8691 20.7725 13.7706 20.7103 13.7292 20.6079C13.6747 20.4727 13.7398 20.3191 13.8747 20.2649L16.4197 19.2369C16.5549 19.1824 16.7082 19.2475 16.7627 19.3824C16.8173 19.5175 16.7522 19.6711 16.6173 19.7253L14.0722 20.7533C14.0398 20.7662 14.0064 20.7725 13.9735 20.7725Z" fill="white"/>
<path d="M13.9735 19.1307C13.8691 19.1307 13.7706 19.0685 13.7292 18.966C13.6747 18.8309 13.7398 18.6773 13.8747 18.623L16.4197 17.5948C16.5549 17.5403 16.7082 17.6054 16.7627 17.7403C16.8173 17.8754 16.7522 18.029 16.6173 18.0833L14.0722 19.1115C14.0398 19.1246 14.0064 19.1307 13.9735 19.1307Z" fill="white"/>
<path d="M13.9735 17.4889C13.8691 17.4889 13.7706 17.4268 13.7292 17.3243C13.6747 17.1892 13.7398 17.0356 13.8747 16.9813L16.4197 15.9534C16.5549 15.8988 16.7082 15.9639 16.7627 16.0988C16.8173 16.2339 16.7522 16.3875 16.6173 16.4418L14.0722 17.4697C14.0398 17.4826 14.0064 17.4889 13.9735 17.4889Z" fill="white"/>
</g>
<defs>
<clipPath id="clip0_299_2451">
<rect width="24" height="24" fill="white"/>
</clipPath>
</defs>
</svg>
