<svg width="12" height="12" viewBox="0 0 12 12" fill="none" xmlns="http://www.w3.org/2000/svg">
<path d="M2.5 10.5C2.225 10.5 1.98967 10.4022 1.794 10.2065C1.59833 10.0108 1.50033 9.77533 1.5 9.5V2.5C1.5 2.225 1.598 1.98967 1.794 1.794C1.99 1.59833 2.22533 1.50033 2.5 1.5H9.5C9.775 1.5 10.0105 1.598 10.2065 1.794C10.4025 1.99 10.5003 2.22533 10.5 2.5V3.75H9.5V2.5H2.5V9.5H9.5V8.25H10.5V9.5C10.5 9.775 10.4022 10.0105 10.2065 10.2065C10.0108 10.4025 9.77533 10.5003 9.5 10.5H2.5ZM6.5 8.5C6.225 8.5 5.98967 8.40217 5.794 8.2065C5.59833 8.01083 5.50033 7.77533 5.5 7.5V4.5C5.5 4.225 5.598 3.98967 5.794 3.794C5.99 3.59833 6.22533 3.50033 6.5 3.5H10C10.275 3.5 10.5105 3.598 10.7065 3.794C10.9025 3.99 11.0003 4.22533 11 4.5V7.5C11 7.775 10.9022 8.0105 10.7065 8.2065C10.5108 8.4025 10.2753 8.50033 10 8.5H6.5ZM10 7.5V4.5H6.5V7.5H10ZM8 6.75C8.20833 6.75 8.3855 6.67717 8.5315 6.5315C8.6775 6.38583 8.75033 6.20867 8.75 6C8.74967 5.79133 8.67683 5.61433 8.5315 5.469C8.38617 5.32367 8.209 5.25067 8 5.25C7.791 5.24933 7.614 5.32233 7.469 5.469C7.324 5.61567 7.251 5.79267 7.25 6C7.249 6.20733 7.322 6.3845 7.469 6.5315C7.616 6.6785 7.793 6.75133 8 6.75Z" fill="white"/>
</svg>
