<svg width="24" height="24" viewBox="0 0 24 24" fill="none" xmlns="http://www.w3.org/2000/svg">
<path d="M23.4503 10.2267C23.094 9.83454 22.6125 9.61354 22.1101 9.61153C21.6064 9.61153 21.1317 9.8294 20.7699 10.2267L19.9767 11.1045V1.45134C19.9767 0.65038 19.3891 0 18.6655 0H7.10138C6.37772 0 5.79011 0.65038 5.79011 1.45134V11.6876C5.79011 11.9471 5.85669 12.1874 5.96379 12.3989C5.26907 12.6456 4.62936 13.0717 4.09964 13.658L2.86652 15.0228C2.45259 14.7633 1.89392 14.8178 1.54946 15.199L0.128192 16.7721C0.0875833 16.8165 0.0553416 16.8694 0.0333363 16.9277C0.011331 16.986 0 17.0486 0 17.1117C0 17.1749 0.011331 17.2375 0.0333363 17.2958C0.0553416 17.3541 0.0875833 17.4069 0.128192 17.4513C0.298976 17.6404 0.573967 17.6404 0.741856 17.4513L2.16313 15.8783C2.18316 15.8557 2.20705 15.8379 2.23338 15.8257C2.25972 15.8135 2.28799 15.8072 2.31654 15.8072C2.34509 15.8072 2.37336 15.8135 2.3997 15.8257C2.42604 15.8379 2.44992 15.8557 2.46996 15.8783L7.33874 21.2671C7.42269 21.36 7.42269 21.5138 7.33874 21.6067L5.91747 23.1798C5.87686 23.2242 5.84462 23.2771 5.82262 23.3354C5.80061 23.3937 5.78928 23.4562 5.78928 23.5194C5.78928 23.5826 5.80061 23.6452 5.82262 23.7035C5.84462 23.7617 5.87686 23.8146 5.91747 23.859C6.00142 23.9519 6.11431 24 6.22431 24C6.3343 24 6.44719 23.9519 6.53114 23.859L7.95241 22.2859C8.31134 21.8887 8.36055 21.2863 8.11451 20.825L8.4445 20.4598C8.62396 20.2611 8.85843 20.1554 9.11026 20.1554H15.4987C16.7116 20.1554 17.8897 19.6011 18.7292 18.6304L23.4706 13.1646C24.1856 12.3508 24.174 11.0308 23.4503 10.2267ZM16.7984 13.1358H18.1415L17.0792 14.3116C17.0792 14.2827 17.0821 14.2571 17.0821 14.2283C17.0821 13.8278 16.975 13.4561 16.7984 13.1358ZM13.898 0.961153V3.96636L13.157 3.30957C13.0788 3.23909 12.9804 3.20385 12.8849 3.20385C12.7894 3.20385 12.6938 3.23909 12.6128 3.30957L11.8717 3.96636V0.961153H13.898ZM6.6614 11.6876V1.45134C6.6614 1.18222 6.85823 0.961153 7.10428 0.961153H11.0034V4.96596C11.0034 5.15178 11.0989 5.31838 11.2494 5.39848C11.3999 5.47857 11.5794 5.45615 11.7097 5.34081L12.8849 4.29956L14.0601 5.34081C14.1383 5.41129 14.2338 5.44654 14.3322 5.44654C14.4472 5.44603 14.5574 5.39524 14.6387 5.30522C14.72 5.2152 14.7659 5.09326 14.7664 4.96596V0.961153H18.6655C18.9086 0.961153 19.1084 1.17901 19.1084 1.45134V11.6876C19.1084 11.9567 18.9115 12.1778 18.6655 12.1778H15.4987C15.4001 12.1601 15.3005 12.1504 15.2006 12.149H7.39664C7.27217 12.149 7.1477 12.1586 7.02323 12.1682C6.81771 12.1266 6.6614 11.9279 6.6614 11.6876ZM22.8482 12.5014L18.1068 17.9672C17.7693 18.3552 17.3648 18.664 16.9172 18.8754C16.4696 19.0868 15.9882 19.1963 15.5016 19.1974H9.11316C8.62975 19.1974 8.17529 19.4057 7.83083 19.7837L7.52689 20.1201L3.51203 15.67L4.7162 14.3372C5.34434 13.642 6.15194 13.2223 7.02323 13.1294C7.04928 13.1326 7.07533 13.139 7.10138 13.139H15.4206C15.8721 13.2511 16.2137 13.6964 16.2137 14.2315C16.2137 14.8242 15.7969 15.3048 15.2701 15.3464C15.2237 15.3496 15.1745 15.3528 15.1282 15.3528H10.8586C10.6184 15.3528 10.4244 15.5675 10.4244 15.8334C10.4244 16.0993 10.6184 16.314 10.8586 16.314H15.2006C15.2758 16.314 15.3511 16.3076 15.4235 16.298C16.1963 16.2211 16.9171 15.8526 17.4729 15.2375L21.3806 10.9091C21.5775 10.6944 21.8351 10.5727 22.1101 10.5727C22.3793 10.5727 22.6456 10.6944 22.8366 10.9059C23.2274 11.3416 23.2361 12.0561 22.8482 12.5014ZM8.10872 10.0921C8.10872 9.82619 8.30266 9.61153 8.54291 9.61153H9.70077C9.94102 9.61153 10.135 9.82619 10.135 10.0921C10.135 10.358 9.94102 10.5727 9.70077 10.5727H8.54291C8.30266 10.5727 8.10872 10.358 8.10872 10.0921ZM8.10872 8.1698C8.10872 7.90388 8.30266 7.68923 8.54291 7.68923H10.8586C11.0989 7.68923 11.2928 7.90388 11.2928 8.1698C11.2928 8.43572 11.0989 8.65038 10.8586 8.65038H8.54291C8.30266 8.65038 8.10872 8.43572 8.10872 8.1698Z" fill="white"/>
</svg>
