<svg width="24" height="24" viewBox="0 0 24 24" fill="none" xmlns="http://www.w3.org/2000/svg">
<g clip-path="url(#clip0_299_2485)">
<path d="M17.8467 5.77973C17.5559 5.77973 17.3198 5.54369 17.3198 5.25286V0.6946C17.3198 0.403765 17.5559 0.167725 17.8467 0.167725C18.1375 0.167725 18.3736 0.403765 18.3736 0.6946V5.25286C18.3736 5.54369 18.1378 5.77973 17.8467 5.77973Z" fill="white"/>
<path d="M0.658711 18.9725C0.367876 18.9725 0.131836 18.7365 0.131836 18.4457V0.694722C0.131836 0.403887 0.367876 0.167847 0.658711 0.167847C0.949546 0.167847 1.18559 0.403887 1.18559 0.694722V18.4457C1.18559 18.7365 0.949546 18.9725 0.658711 18.9725Z" fill="white"/>
<path d="M20.5804 23.8055C20.2896 23.8055 20.0535 23.5695 20.0535 23.2786C20.0535 22.9878 20.2896 22.7518 20.5804 22.7518C21.616 22.7518 22.4869 22.0349 22.724 21.0718H17.8467C17.5559 21.0718 17.3198 20.8358 17.3198 20.5449C17.3198 20.2541 17.5559 20.0181 17.8467 20.0181H23.3143C23.6052 20.0181 23.8412 20.2541 23.8412 20.5449C23.8412 22.3429 22.3784 23.8055 20.5804 23.8055Z" fill="white"/>
<path d="M17.8467 21.0717C17.5559 21.0717 17.3198 20.8357 17.3198 20.5448V14.1386C17.3198 13.8477 17.5559 13.6117 17.8467 13.6117C18.1375 13.6117 18.3736 13.8477 18.3736 14.1386V20.5448C18.3736 20.8359 18.1378 21.0717 17.8467 21.0717Z" fill="white"/>
<path d="M3.3924 23.8055C1.5947 23.8055 0.131836 22.3429 0.131836 20.5449V18.4453C0.131836 18.1545 0.367876 17.9185 0.658711 17.9185C0.949546 17.9185 1.18559 18.1545 1.18559 18.4453V20.5449C1.18559 21.7617 2.17558 22.7517 3.3924 22.7517C3.68324 22.7517 3.91928 22.9878 3.91928 23.2786C3.91928 23.5695 3.6835 23.8055 3.3924 23.8055Z" fill="white"/>
<path d="M20.5803 23.8055H3.39235C3.10152 23.8055 2.86548 23.5694 2.86548 23.2786C2.86548 22.9877 3.10152 22.7517 3.39235 22.7517H20.5803C20.8712 22.7517 21.1072 22.9877 21.1072 23.2786C21.1072 23.5694 20.8714 23.8055 20.5803 23.8055Z" fill="white"/>
<path d="M3.39235 23.8055C3.10152 23.8055 2.86548 23.5695 2.86548 23.2786C2.86548 22.9878 3.10152 22.7518 3.39235 22.7518C4.60917 22.7518 5.59917 21.7618 5.59917 20.5449C5.59917 20.2541 5.83521 20.0181 6.12604 20.0181H17.8464C18.1372 20.0181 18.3733 20.2541 18.3733 20.5449C18.3733 20.8358 18.1372 21.0718 17.8464 21.0718H6.61051C6.35813 22.62 5.01091 23.8055 3.39235 23.8055Z" fill="white"/>
<path d="M11.1275 13.8492H4.31423C4.02339 13.8492 3.78735 13.6131 3.78735 13.3223C3.78735 13.0315 4.02339 12.7954 4.31423 12.7954H11.1275C11.4183 12.7954 11.6544 13.0315 11.6544 13.3223C11.6544 13.6131 11.4186 13.8492 11.1275 13.8492Z" fill="white"/>
<path d="M18.8458 10.7727C18.5632 10.7727 18.3324 10.5501 18.3195 10.2706C18.04 10.2577 17.8174 10.027 17.8174 9.74428C17.8174 9.45345 18.0534 9.21741 18.3443 9.21741C18.9114 9.21741 19.3727 9.67869 19.3727 10.2459C19.3727 10.5367 19.1369 10.7727 18.8458 10.7727Z" fill="white"/>
<path d="M17.8467 8.49549C17.5559 8.49549 17.3198 8.25945 17.3198 7.96862V7.34743C17.3198 7.0566 17.5559 6.82056 17.8467 6.82056C18.1375 6.82056 18.3736 7.0566 18.3736 7.34743V7.96862C18.3736 8.25945 18.1378 8.49549 17.8467 8.49549Z" fill="white"/>
<path d="M18.3443 10.2708H17.349C16.7818 10.2708 16.3206 9.80955 16.3206 9.24237V8.47023C16.3206 7.90305 16.7818 7.44177 17.349 7.44177H18.3443C18.9115 7.44177 19.3727 7.90305 19.3727 8.47023C19.3727 8.76107 19.1367 8.99711 18.8459 8.99711C18.5635 8.99711 18.3327 8.77477 18.3195 8.49552H17.374V9.21734H18.3443C18.6351 9.21734 18.8712 9.45338 18.8712 9.74422C18.8712 10.0351 18.6351 10.2708 18.3443 10.2708Z" fill="white"/>
<path d="M17.8467 12.6679C17.5559 12.6679 17.3198 12.4318 17.3198 12.141V11.5198C17.3198 11.229 17.5559 10.9929 17.8467 10.9929C18.1375 10.9929 18.3736 11.229 18.3736 11.5198V12.141C18.3736 12.4318 18.1378 12.6679 17.8467 12.6679Z" fill="white"/>
<path d="M18.3443 12.0466H17.349C16.7818 12.0466 16.3206 11.5853 16.3206 11.0181C16.3206 10.7273 16.5566 10.4913 16.8474 10.4913C17.1298 10.4913 17.3606 10.7136 17.3738 10.9929H18.3193V10.2457C18.3193 9.95491 18.5553 9.71887 18.8461 9.71887C19.137 9.71887 19.373 9.95491 19.373 10.2457V11.0181C19.3727 11.5851 18.9115 12.0466 18.3443 12.0466Z" fill="white"/>
<path d="M14.4289 17.0451H4.31423C4.02339 17.0451 3.78735 16.809 3.78735 16.5182C3.78735 16.2274 4.02339 15.9913 4.31423 15.9913H14.4289C14.7197 15.9913 14.9558 16.2274 14.9558 16.5182C14.9558 16.809 14.7197 17.0451 14.4289 17.0451Z" fill="white"/>
<path d="M15.6984 3.04158C15.5772 3.04158 15.456 2.99996 15.3578 2.91671L13.5498 1.38509L11.7421 2.91671C11.5456 3.08321 11.2574 3.08321 11.0609 2.91671L9.25289 1.38509L7.44491 2.91671C7.24839 3.08321 6.96019 3.08321 6.76366 2.91671L4.95569 1.38509L3.14798 2.91671C2.95146 3.08321 2.66326 3.08321 2.46674 2.91671L0.318139 1.09662C0.0960613 0.908529 0.0686638 0.576071 0.256758 0.353993C0.444853 0.131652 0.777311 0.104518 0.999388 0.292612L2.80736 1.82424L4.61507 0.292612C4.81159 0.126119 5.09979 0.126119 5.29632 0.292612L7.10429 1.82424L8.91226 0.292612C9.10879 0.126119 9.39699 0.126119 9.59351 0.292612L11.4015 1.82424L13.2092 0.292612C13.4057 0.126119 13.6939 0.126119 13.8904 0.292612L15.6984 1.82424L17.5061 0.292612C17.7282 0.104781 18.0604 0.131915 18.2487 0.353993C18.4368 0.576071 18.4092 0.908529 18.1874 1.09662L16.039 2.91671C15.9408 2.99996 15.8196 3.04158 15.6984 3.04158Z" fill="white"/>
<path d="M17.8467 14.6654C15.1064 14.6654 12.877 12.436 12.877 9.6957C12.877 6.95542 15.1064 4.72595 17.8467 4.72595C20.5867 4.72595 22.8162 6.95542 22.8162 9.6957C22.8162 12.436 20.5867 14.6654 17.8467 14.6654ZM17.8467 5.7797C15.6876 5.7797 13.9307 7.5363 13.9307 9.6957C13.9307 11.8551 15.6876 13.6117 17.8467 13.6117C20.0058 13.6117 21.7624 11.8548 21.7624 9.6957C21.7624 7.5363 20.0058 5.7797 17.8467 5.7797Z" fill="white"/>
<path d="M9.27054 10.6534H4.31423C4.02339 10.6534 3.78735 10.4173 3.78735 10.1265C3.78735 9.83565 4.02339 9.59961 4.31423 9.59961H9.27054C9.56138 9.59961 9.79742 9.83565 9.79742 10.1265C9.79742 10.4173 9.56138 10.6534 9.27054 10.6534Z" fill="white"/>
<path d="M11.1275 7.45756H4.31423C4.02339 7.45756 3.78735 7.22152 3.78735 6.93068C3.78735 6.63985 4.02339 6.40381 4.31423 6.40381H11.1275C11.4183 6.40381 11.6544 6.63985 11.6544 6.93068C11.6544 7.22152 11.4186 7.45756 11.1275 7.45756Z" fill="white"/>
</g>
<defs>
<clipPath id="clip0_299_2485">
<rect width="24" height="24" fill="white"/>
</clipPath>
</defs>
</svg>
