<svg width="616" height="840" viewBox="0 0 616 840" fill="none" xmlns="http://www.w3.org/2000/svg">
<path d="M579 187.5C598.2 137.5 507.5 41.5 461 0C376.667 0 94.9002 0.500018 48.5002 0.500008C13.5002 0.5 -0.065952 10.5 0.000240942 40C0.500241 262.833 0.500275 731.187 0.500275 786C0.500275 818 3.50027 839.5 39.0003 839.5C160.334 839.5 514.7 839 541.5 839C575 839 590 688.5 579 634C568 579.5 579 568.5 608 513.5C637 458.5 579 363 556.5 335.5C534 308 555 250 579 187.5Z" fill="url(#paint0_linear_232_2910)"/>
<defs>
<linearGradient id="paint0_linear_232_2910" x1="465.5" y1="14.4999" x2="31.0004" y2="820.5" gradientUnits="userSpaceOnUse">
<stop stop-color="#53C879"/>
<stop offset="1" stop-color="#239849"/>
</linearGradient>
</defs>
</svg>
